REM MD5 5eb72a76a4324c18625c31a28bdb6978
FILE "Euro Demo 35 (Europe, Australia).bin" BINARY
  TRACK 01 MODE2/2352
    INDEX 01 00:00:00
  TRACK 02 AUDIO
    INDEX 00 44:18:06
    INDEX 01 44:20:06
  TRACK 03 AUDIO
    INDEX 00 48:00:09
    INDEX 01 48:02:09
  TRACK 04 AUDIO
    INDEX 00 51:02:06
    INDEX 01 51:04:06
  TRACK 05 AUDIO
    INDEX 00 55:04:07
    INDEX 01 55:06:07
  TRACK 06 AUDIO
    INDEX 00 57:37:62
    INDEX 01 57:39:62
REM LEADOUT 60:41:18
